<mxfile host="app.diagrams.net" modified="2023-08-14T05:11:17.159Z" agent="Mozilla/5.0 (Windows NT 10.0; Win64; x64) AppleWebKit/537.36 (KHTML, like Gecko) Chrome/115.0.0.0 Safari/537.36" version="21.6.8" etag="EL5M5ReB7p9es2HQdM8U" type="github">
  <diagram name="Halaman-1" id="RSVHsqRsbo349FEQMMsI">
    <mxGraphModel>
      <root>
        <mxCell id="0" />
        <mxCell id="1" parent="0" />
      </root>
    </mxGraphModel>
  </diagram>
</mxfile>
